<?xml version="1.0" encoding="UTF-8"?>
<!DOCTYPE svg PUBLIC "-//W3C//DTD SVG 1.1//EN" "http://www.w3.org/Graphics/SVG/1.1/DTD/svg11.dtd">
<!-- Creator: CorelDRAW 2021 (64-Bit) -->
<svg xmlns="http://www.w3.org/2000/svg" xml:space="preserve" width="1.92587in" height="0.600638in" version="1.1" style="shape-rendering:geometricPrecision; text-rendering:geometricPrecision; image-rendering:optimizeQuality; fill-rule:evenodd; clip-rule:evenodd"
viewBox="0 0 1920.33 598.91"
 xmlns:xlink="http://www.w3.org/1999/xlink"
 xmlns:xodm="http://www.corel.com/coreldraw/odm/2003">
 <defs>
  <style type="text/css">
   <![CDATA[
    .fil0 {fill:#ED3237}
   ]]>
  </style>
 </defs>
 <g id="Layer_x0020_1">
  <metadata id="CorelCorpID_0Corel-Layer"/>
  <g id="_2446233052048">
   <path class="fil0" d="M519.92 3.79c-129.88,25.4 -104.29,137.31 -104.29,252.64 0,57.56 0,115.12 0,172.68 0,67.11 -2.77,100.98 41.2,138.24 41.11,34.83 90.98,30.48 158.89,30.48 64.55,0 129.09,-0.01 193.64,-0.01 62.67,0 351.22,3.48 388.09,-1.99 91.08,-13.5 106.53,-83.22 107.05,-155.11 0.75,1.82 0.53,2.17 7.75,7.88 4.29,3.39 6.29,4.09 10.93,7.36l64.12 46.51c50.17,35.87 120.17,106.36 119.43,9.63l-0.01 -424.95c0.79,-95.15 -66.09,-28.61 -117.44,7.88 -27.97,19.88 -54.71,42.79 -87.64,62.65l0 0.47c-0.02,-58.18 -1.35,-96.54 -41.44,-127.62 -43.56,-33.78 -90.96,-29.35 -160.38,-29.34 -76.27,0 -546.3,-3.97 -579.9,2.6zm781.72 193.65l0 -27.35 0.01 -8.71 -0.01 36.06zm-472.15 -9.28c41.4,24.2 82.79,48.4 124.19,72.6 56.8,33.21 55.1,45.18 -0.66,77.77 -47.94,28.03 -95.88,56.05 -143.83,84.08 -73,42.66 -78.69,44.52 -78.69,-27.48 0,-52.49 0,-104.97 0,-157.45 0,-119.7 -0.61,-107.74 98.99,-49.52z"/>
   <g>
    <path class="fil0" d="M120.77 100.84c5.94,-13.98 -11.09,-42.1 -38.72,-10.69 -41.51,47.19 -69.61,98.77 -79.04,166.57 -7.05,50.64 -1.43,99.22 13.8,144.17 13.17,38.88 60.95,118.18 82.4,121.85 12.35,2.11 22.22,-6.25 21.51,-18.77 -0.64,-11.34 -20.23,-26.63 -35.17,-47.92 -51.61,-73.59 -64.49,-171.75 -29.91,-256.66 8.17,-20.05 17.23,-36.87 28.84,-53.74 9.9,-14.39 34.88,-41.53 36.28,-44.81zm77.43 73.76c-13.68,4.3 -34.09,36.83 -41.3,51.43 -28.91,58.5 -19.26,130.96 20.9,181.01 31.96,39.84 50.02,5.17 39.74,-10.18 -10.92,-16.31 -43.05,-38.5 -40.87,-101.41 2.17,-62.83 41.13,-86.77 44.23,-98.57 4.18,-15.92 -9,-26.58 -22.69,-22.27zm-26.65 -28.54c6.87,-17.99 -15.35,-33.4 -32.61,-16.77 -10.44,10.05 -19.73,23.31 -28.61,36.22 -63.16,91.72 -48.86,214.48 16.86,292.16 35.94,42.48 53.72,5.17 38.24,-12.7 -5.24,-6.06 -9.84,-10.24 -14.85,-16.57 -56.68,-71.53 -59.69,-170.34 -7.82,-246.15 6.81,-9.95 26.34,-29.74 28.8,-36.19z"/>
    <path class="fil0" d="M1799.56 100.84c-5.95,-13.98 11.09,-42.1 38.72,-10.69 41.51,47.19 69.61,98.77 79.04,166.57 7.05,50.64 1.43,99.22 -13.8,144.17 -13.17,38.88 -60.95,118.18 -82.4,121.85 -12.35,2.11 -22.22,-6.25 -21.51,-18.77 0.64,-11.34 20.23,-26.63 35.17,-47.92 51.61,-73.59 64.49,-171.75 29.91,-256.66 -8.17,-20.05 -17.23,-36.87 -28.84,-53.74 -9.9,-14.39 -34.88,-41.53 -36.28,-44.81zm-77.43 73.76c13.68,4.3 34.09,36.83 41.3,51.43 28.91,58.5 19.26,130.96 -20.9,181.01 -31.96,39.84 -50.02,5.17 -39.74,-10.18 10.92,-16.31 43.05,-38.5 40.87,-101.41 -2.17,-62.83 -41.13,-86.77 -44.23,-98.57 -4.18,-15.92 9,-26.58 22.69,-22.27zm26.65 -28.54c-6.87,-17.99 15.35,-33.4 32.61,-16.77 10.44,10.05 19.73,23.31 28.61,36.22 63.16,91.72 48.86,214.48 -16.86,292.16 -35.94,42.48 -53.72,5.17 -38.24,-12.7 5.24,-6.06 9.84,-10.24 14.85,-16.57 56.68,-71.53 59.69,-170.34 7.82,-246.15 -6.81,-9.95 -26.34,-29.74 -28.8,-36.19z"/>
   </g>
  </g>
 </g>
</svg>
